<svg width="245" height="52" viewBox="0 0 245 52" fill="none" xmlns="http://www.w3.org/2000/svg">
<path d="M73.1472 41.9925C73.2801 41.931 73.3999 41.8443 73.5 41.7374C73.6609 41.5495 73.7449 41.3077 73.7352 41.0604C73.7387 40.8355 73.67 40.6153 73.5392 40.4325C73.4087 40.2706 73.2401 40.1437 73.0485 40.0632C72.8569 39.9828 72.6484 39.9512 72.4416 39.9713H70.56V44.3472H72.4122C72.6482 44.3682 72.8858 44.3329 73.1056 44.2442C73.3253 44.1555 73.5209 44.016 73.6764 43.837C73.85 43.62 73.9435 43.3497 73.941 43.0717C73.9491 42.9276 73.9271 42.7834 73.8765 42.6483C73.8259 42.5131 73.7477 42.39 73.647 42.2868C73.5013 42.1569 73.3314 42.0568 73.1472 41.9925V41.9925ZM71.1382 40.4717H72.2064C72.4062 40.4638 72.6057 40.4938 72.7944 40.56C72.9075 40.6058 73.0028 40.6868 73.0663 40.7911C73.1299 40.8953 73.1582 41.0173 73.1472 41.1389C73.1575 41.2592 73.1311 41.3798 73.0717 41.4849C73.0122 41.5899 72.9224 41.6745 72.814 41.7275C72.6285 41.807 72.4276 41.8439 72.226 41.8355H71.1382V40.4717ZM73.206 43.523C73.1103 43.6348 72.989 43.7217 72.8525 43.7764C72.716 43.8311 72.5683 43.8518 72.422 43.837H71.1382V42.3064H72.324C72.527 42.2987 72.7297 42.3286 72.9218 42.3947C73.055 42.4399 73.1695 42.5279 73.2475 42.645C73.3255 42.7621 73.3626 42.9018 73.353 43.0423C73.358 43.2143 73.3063 43.3832 73.206 43.523ZM103.449 41.9532L102.861 41.8159C102.598 41.765 102.342 41.686 102.096 41.5804C102.014 41.5341 101.946 41.4653 101.901 41.3819C101.856 41.2985 101.835 41.204 101.842 41.1094C101.841 41.0142 101.859 40.9197 101.897 40.832C101.934 40.7442 101.988 40.665 102.057 40.5992C102.158 40.517 102.274 40.4555 102.398 40.4184C102.523 40.3814 102.653 40.3695 102.782 40.3834C102.946 40.3666 103.111 40.389 103.265 40.4487C103.418 40.5084 103.555 40.6037 103.664 40.7268C103.772 40.8877 103.836 41.0735 103.851 41.2664H104.409C104.416 41.0624 104.371 40.86 104.279 40.6781C104.186 40.4962 104.049 40.3408 103.88 40.2264C103.546 39.9969 103.148 39.88 102.743 39.8928C102.337 39.8671 101.936 40.0008 101.626 40.2657C101.494 40.3917 101.391 40.5444 101.324 40.7137C101.256 40.8829 101.226 41.0647 101.234 41.2468C101.225 41.4057 101.257 41.5642 101.328 41.7069C101.398 41.8496 101.504 41.9716 101.636 42.0611C101.883 42.1993 102.151 42.2954 102.43 42.3457L102.998 42.483C103.24 42.5281 103.472 42.6144 103.684 42.7381C103.76 42.7983 103.819 42.8766 103.857 42.9657C103.894 43.0548 103.909 43.152 103.9 43.2483C103.902 43.3995 103.852 43.5468 103.76 43.6663C103.667 43.7857 103.537 43.8701 103.39 43.9057C103.201 43.9723 103.002 44.0055 102.802 44.0038C102.616 44.0206 102.428 43.9899 102.256 43.9144C102.085 43.8389 101.936 43.7211 101.822 43.5721C101.715 43.3871 101.657 43.1776 101.655 42.9638H101.097C101.084 43.1711 101.117 43.3787 101.193 43.572C101.27 43.7652 101.387 43.9394 101.538 44.0823C101.884 44.3755 102.33 44.5232 102.782 44.4943C103.202 44.5033 103.616 44.3945 103.978 44.1804C104.15 44.0701 104.288 43.9149 104.378 43.7316C104.468 43.5482 104.506 43.3438 104.488 43.1404C104.498 42.9701 104.467 42.7998 104.397 42.6442C104.327 42.4886 104.22 42.3525 104.086 42.2476C103.894 42.1119 103.678 42.0152 103.449 41.963V41.9532ZM6.37 9.07547H26.313C27.2227 9.07547 28.0951 8.71368 28.7384 8.06969C29.3816 7.4257 29.743 6.55226 29.743 5.64151C29.743 4.73077 29.3816 3.85733 28.7384 3.21333C28.0951 2.56934 27.2227 2.20755 26.313 2.20755H6.37C5.46031 2.20755 4.58788 2.56934 3.94463 3.21333C3.30138 3.85733 2.94 4.73077 2.94 5.64151C2.94 6.55226 3.30138 7.4257 3.94463 8.06969C4.58788 8.71368 5.46031 9.07547 6.37 9.07547V9.07547ZM6.37 29.1985H26.313C27.2227 29.1985 28.0951 28.8367 28.7384 28.1927C29.3816 27.5487 29.743 26.6753 29.743 25.7645C29.743 24.8538 29.3816 23.9803 28.7384 23.3364C28.0951 22.6924 27.2227 22.3306 26.313 22.3306H6.37C5.46031 22.3306 4.58788 22.6924 3.94463 23.3364C3.30138 23.9803 2.94 24.8538 2.94 25.7645C2.94 26.6753 3.30138 27.5487 3.94463 28.1927C4.58788 28.8367 5.46031 29.1985 6.37 29.1985V29.1985ZM6.37 50.9109H26.313C27.2227 50.9109 28.0951 50.5492 28.7384 49.9052C29.3816 49.2612 29.743 48.3877 29.743 47.477C29.743 46.5662 29.3816 45.6928 28.7384 45.0488C28.0951 44.4048 27.2227 44.043 26.313 44.043H6.37C5.46031 44.043 4.58788 44.4048 3.94463 45.0488C3.30138 45.6928 2.94 46.5662 2.94 47.477C2.94 48.3877 3.30138 49.2612 3.94463 49.9052C4.58788 50.5492 5.46031 50.9109 6.37 50.9109V50.9109ZM81.83 39.9713L80.2228 44.3472H80.8304L81.34 43.0325H83.006L83.4568 44.3374H84.1036L82.516 39.9713H81.83ZM81.438 42.5517L82.1338 40.5894L82.81 42.5517H81.438ZM241.276 14.717C241.25 14.6817 241.216 14.6528 241.177 14.6325C241.138 14.6121 241.095 14.6007 241.051 14.5992H240.796C240.471 14.5526 240.144 14.5296 239.816 14.5306C239.512 14.5306 239.189 14.5306 238.836 14.5306H238.218C238.062 14.1872 237.846 14.0302 237.572 14.0498C237.28 14.0795 237.007 14.2075 236.797 14.4128C236.712 14.4944 236.633 14.583 236.562 14.6777L235.7 14.7366C234.661 14.8282 233.625 14.9426 232.593 15.08C232.932 14.4684 233.24 13.8396 233.514 13.1962L233.906 12.2151C234.048 11.9064 234.065 11.5552 233.955 11.234C233.924 11.1443 233.872 11.0631 233.804 10.9968C233.736 10.9304 233.654 10.8806 233.563 10.8513C233.402 10.7937 233.225 10.7937 233.064 10.8513C232.747 11.0078 232.467 11.2283 232.24 11.4989C232.012 11.7736 231.806 12.0352 231.623 12.2838C231.14 12.8986 230.705 13.5037 230.32 14.0989L229.428 15.4725L228.448 15.6294L227.468 15.8159C227.723 15.3842 227.968 14.9426 228.203 14.4913C228.439 14.0521 228.617 13.5837 228.732 13.0981C228.732 12.9608 228.732 12.8038 228.781 12.637C228.794 12.4751 228.777 12.3122 228.732 12.1562C228.689 12.012 228.612 11.8806 228.507 11.7736C228.449 11.7193 228.381 11.6774 228.307 11.6504C228.233 11.6234 228.154 11.6119 228.075 11.6166C227.88 11.6219 227.693 11.6948 227.546 11.8226C227.372 11.9612 227.211 12.1155 227.066 12.2838C226.915 12.4564 226.778 12.6401 226.654 12.8332C226.53 13.0294 226.422 13.1831 226.331 13.2943C225.939 13.798 225.567 14.3114 225.214 14.8347C224.861 15.358 224.511 15.8943 224.165 16.4438L223.548 16.5811L222.97 16.7185L222.235 16.9049C221.992 16.9629 221.771 17.0888 221.598 17.2679C221.556 17.2941 221.522 17.3303 221.498 17.3731C221.474 17.416 221.461 17.4641 221.46 17.5132C221.46 17.6015 221.519 17.6702 221.627 17.7192C221.716 17.7472 221.812 17.7472 221.901 17.7192C222.006 17.6889 222.108 17.6495 222.205 17.6015L222.93 17.4642L223.646 17.3268C223.463 17.6277 223.293 17.9253 223.136 18.2196C222.979 18.514 222.819 18.8214 222.656 19.1419C222.316 19.8287 221.99 20.5253 221.676 21.2317L221.607 21.4083C221.522 21.506 221.431 21.5978 221.333 21.683C220.831 22.1396 220.304 22.5687 219.755 22.9683C219.206 23.3673 218.635 23.763 218.04 24.1555C217.7 24.3582 217.351 24.5512 216.992 24.7343C216.631 24.9203 216.257 25.081 215.874 25.2151L215.502 25.3525C215.375 25.3969 215.244 25.4265 215.11 25.4408C215 25.4559 214.887 25.4389 214.787 25.3917C214.698 25.3917 214.649 25.2347 214.649 25.0483C214.653 24.6536 214.754 24.2659 214.943 23.92C215.139 23.5537 215.352 23.1874 215.58 22.8211L215.953 22.7525C216.737 22.636 217.5 22.4046 218.217 22.0657C218.494 21.9216 218.762 21.761 219.02 21.5849C219.322 21.3831 219.592 21.1386 219.824 20.8589C220.04 20.6054 220.197 20.3072 220.284 19.9857C220.327 19.8159 220.329 19.6385 220.289 19.468C220.25 19.2975 220.171 19.1387 220.059 19.0045C219.946 18.8504 219.798 18.7249 219.628 18.638C219.458 18.5511 219.27 18.5053 219.079 18.5042C218.671 18.4967 218.265 18.5666 217.883 18.7102C217.463 18.8635 217.062 19.0643 216.688 19.3087C216.368 19.5065 216.069 19.7367 215.796 19.9955C215.411 20.3914 215.064 20.8216 214.757 21.2808L214.669 21.3691C214.186 21.7811 213.722 22.203 213.277 22.6347C212.833 23.0664 212.369 23.5014 211.886 23.9396C211.66 24.1457 211.415 24.3419 211.161 24.5381C210.906 24.7343 210.651 24.9208 210.377 25.1072L209.945 25.3328C209.749 25.4375 209.619 25.4767 209.553 25.4506L209.622 25.1072C209.631 25.029 209.631 24.9499 209.622 24.8717C209.61 24.8168 209.61 24.7598 209.622 24.7049C209.734 24.3677 209.871 24.0397 210.034 23.7238C210.197 23.4164 210.37 23.1122 210.553 22.8113C210.902 22.3038 211.278 21.8157 211.68 21.3494C212.072 20.8458 212.471 20.352 212.876 19.8679C212.96 19.7797 213.024 19.6746 213.065 19.5596C213.105 19.4446 213.121 19.3223 213.111 19.2008C213.083 19.0792 213.029 18.9656 212.95 18.8687C212.872 18.7717 212.773 18.694 212.66 18.6415C212.572 18.5863 212.474 18.5492 212.371 18.5323C212.268 18.5155 212.163 18.5192 212.062 18.5434C211.847 18.5868 211.634 18.6425 211.425 18.7102C211.165 18.8059 210.9 18.8877 210.631 18.9555C210.363 19.0237 210.084 19.047 209.808 19.0242C209.943 18.8232 210.058 18.6096 210.151 18.3864C210.236 18.1827 210.292 17.968 210.318 17.7487C210.344 17.5511 210.302 17.3506 210.2 17.1796C210.04 16.952 209.797 16.7973 209.523 16.7495C209.249 16.7017 208.967 16.7646 208.74 16.9245C208.461 17.1068 208.246 17.3706 208.123 17.68C207.998 18.0693 207.998 18.4877 208.123 18.877C208.157 18.9718 208.21 19.0585 208.279 19.1321L208.466 19.3185L208.034 20.0053C207.961 20.1401 207.876 20.2681 207.78 20.3879C207.493 20.6936 207.23 21.0217 206.996 21.3691L206.261 22.2619C206.025 22.5562 205.771 22.8506 205.526 23.1155L204.203 24.5283L203.928 24.7834L203.566 25.1072C203.453 25.2131 203.328 25.3054 203.193 25.3819C203.083 25.4447 202.958 25.4784 202.831 25.48C202.833 25.4408 202.833 25.4015 202.831 25.3623C202.821 25.3441 202.816 25.3239 202.816 25.3034C202.816 25.2829 202.821 25.2627 202.831 25.2445C202.836 24.9841 202.892 24.7273 202.997 24.4891C203.135 24.1925 203.295 23.9071 203.477 23.6355L204.026 22.8113C204.232 22.5366 204.448 22.2717 204.663 22.0166L205.33 21.2611C205.468 21.0997 205.615 20.9457 205.771 20.8C205.923 20.6605 206.061 20.506 206.182 20.3389C206.249 20.2721 206.3 20.1914 206.331 20.1025C206.363 20.0137 206.374 19.9189 206.365 19.8251C206.356 19.7313 206.326 19.6407 206.277 19.5599C206.228 19.479 206.163 19.41 206.084 19.3577C205.935 19.2487 205.765 19.1718 205.584 19.1321C205.413 19.0745 205.227 19.0745 205.055 19.1321C204.81 19.2452 204.558 19.3435 204.301 19.4264C204.044 19.507 203.782 19.5692 203.517 19.6128H203.379C203.645 19.245 203.844 18.8332 203.967 18.3962C204.02 18.2102 204.008 18.0118 203.933 17.8336C203.858 17.6554 203.725 17.5078 203.556 17.4151C203.42 17.3046 203.254 17.2371 203.079 17.2214C202.905 17.2057 202.729 17.2424 202.576 17.3268C202.261 17.48 202.01 17.741 201.87 18.0626C201.755 18.321 201.707 18.6048 201.733 18.8868C201.757 19.1859 201.866 19.4719 202.047 19.7109C201.93 19.9171 201.802 20.1169 201.664 20.3094L201.253 20.8785C201.125 21.0355 201.008 21.2023 200.89 21.3691L200.224 22.0166C199.697 22.5606 199.137 23.0717 198.548 23.5472C197.957 23.9911 197.338 24.3974 196.696 24.7638C196.559 24.8553 196.376 24.9633 196.147 25.0876C195.918 25.2118 195.683 25.3263 195.441 25.4309C195.212 25.5316 194.972 25.6073 194.726 25.6566C194.508 25.7149 194.278 25.7149 194.06 25.6566C194.354 25.4702 194.638 25.2838 194.912 25.0876L195.765 24.4498C196.333 23.992 196.892 23.4948 197.441 22.9585C197.972 22.445 198.381 21.8178 198.636 21.1238C198.771 20.8464 198.832 20.5388 198.813 20.2309C198.798 19.9545 198.71 19.687 198.558 19.4559C198.404 19.2333 198.19 19.0596 197.94 18.9555C197.651 18.8396 197.336 18.8057 197.029 18.8574C196.69 18.8821 196.357 18.9686 196.049 19.1125C195.729 19.2594 195.424 19.4368 195.138 19.6423C194.847 19.8511 194.572 20.0807 194.314 20.3291C194.063 20.5657 193.828 20.818 193.609 21.0845C193.132 21.6422 192.739 22.267 192.443 22.9389C192.127 23.6039 192.068 24.3619 192.276 25.0679L192.345 25.2053L191.913 25.3917L191.453 25.5781C191.166 25.7085 190.891 25.8627 190.63 26.0392C190.372 26.2186 190.179 26.4768 190.081 26.7751C190.015 26.9435 189.992 27.1253 190.012 27.3049C190.012 27.475 190.159 27.5142 190.453 27.4226L191.257 27.0792L192.06 26.7064L192.521 26.4808L192.982 26.2257C193.159 26.382 193.365 26.5015 193.589 26.5773C193.813 26.6531 194.049 26.6837 194.285 26.6672C194.819 26.637 195.346 26.521 195.843 26.3238C196.378 26.1188 196.89 25.859 197.372 25.5487C197.798 25.2792 198.211 24.9877 198.607 24.6755C199.128 24.2447 199.625 23.7862 200.096 23.3019L200.782 22.7525C201.346 22.2278 201.861 21.6532 202.321 21.0355L202.595 20.7313C202.729 20.8306 202.89 20.8855 203.056 20.8883H203.556H203.84L203.056 21.9479C202.736 22.432 202.409 22.9814 202.076 23.5962C201.746 24.155 201.602 24.8044 201.664 25.4506C201.669 25.6674 201.731 25.8792 201.842 26.0651C201.954 26.2509 202.112 26.4044 202.301 26.5102C202.495 26.6124 202.71 26.6659 202.929 26.6659C203.147 26.6659 203.363 26.6124 203.556 26.5102C204.138 26.2265 204.652 25.8217 205.065 25.323L206.3 23.8611L207.28 22.674C207.6 22.2725 207.898 21.8532 208.172 21.4181C208.357 21.2125 208.53 20.9963 208.691 20.7706C208.848 20.5449 209.024 20.3094 209.21 20.0838L209.279 20.0151C209.346 20.0671 209.43 20.0916 209.514 20.0838C209.713 20.1493 209.922 20.1825 210.132 20.1819C210.347 20.1927 210.563 20.1927 210.778 20.1819V20.1819C210.576 20.4762 210.383 20.7738 210.2 21.0747L209.651 21.9675C209.351 22.4974 209.067 23.0468 208.799 23.6159C208.532 24.1595 208.391 24.7565 208.387 25.3623C208.378 25.5638 208.41 25.7651 208.48 25.9539C208.551 26.1428 208.66 26.3154 208.799 26.4611C208.942 26.5989 209.118 26.6967 209.311 26.7449C209.504 26.7931 209.705 26.79 209.896 26.7359C210.445 26.6115 210.954 26.3518 211.376 25.9804C211.834 25.5945 212.255 25.2053 212.64 24.8128C213.023 24.4302 213.385 24.0574 213.748 23.6747C213.649 23.9953 213.577 24.3234 213.532 24.6559C213.452 25.1639 213.56 25.6838 213.836 26.1177C213.975 26.3288 214.172 26.4949 214.403 26.5959C214.635 26.6969 214.89 26.7285 215.139 26.6868C215.828 26.6278 216.495 26.4239 217.099 26.0883C217.727 25.7539 218.332 25.3804 218.912 24.9698C219.704 24.4238 220.431 23.7885 221.078 23.0762C221.078 23.243 220.97 23.4 220.931 23.5668C220.858 23.8901 220.805 24.2178 220.774 24.5479C220.739 24.8927 220.762 25.2411 220.843 25.5781C220.916 25.8931 221.064 26.1858 221.274 26.4317C221.514 26.6893 221.844 26.844 222.195 26.8634C222.528 26.9069 222.867 26.8595 223.175 26.726C223.499 26.5873 223.807 26.4164 224.097 26.2159C224.396 26.0071 224.681 25.7776 224.949 25.5291C225.224 25.2805 225.465 25.0516 225.674 24.8423C225.655 25.1731 225.691 25.5048 225.782 25.8234C225.894 26.1109 226.107 26.3479 226.38 26.4906C226.592 26.6241 226.835 26.7017 227.086 26.7162C227.327 26.7292 227.567 26.689 227.791 26.5985C228.021 26.5063 228.243 26.3982 228.458 26.2747C228.664 26.1557 228.864 26.0247 229.055 25.8823C229.617 25.4596 230.151 25.0008 230.653 24.5087C230.996 24.1751 231.309 23.8219 231.633 23.5275C231.471 23.9595 231.353 24.4065 231.28 24.8619C231.194 25.3552 231.194 25.8599 231.28 26.3532C231.324 26.5847 231.416 26.8042 231.552 26.9971C231.687 27.1899 231.861 27.3517 232.064 27.4717C232.313 27.6297 232.593 27.734 232.885 27.7779C233.177 27.8218 233.475 27.8044 233.759 27.7268C234.342 27.5974 234.894 27.3576 235.386 27.0204C236.177 26.4458 236.709 25.5819 236.866 24.6166C236.866 24.3615 236.866 24.2438 236.66 24.2536C236.495 24.2589 236.338 24.3253 236.219 24.44C235.853 24.8742 235.438 25.2659 234.984 25.6076L234.475 25.9313C234.269 26.0571 234.056 26.1717 233.838 26.2747C233.634 26.3728 233.416 26.4359 233.191 26.4611C233.09 26.4749 232.987 26.4672 232.889 26.4385C232.791 26.4097 232.7 26.3606 232.623 26.2943C232.566 26.2458 232.52 26.1858 232.487 26.1181C232.455 26.0505 232.438 25.9768 232.436 25.9019C232.415 25.726 232.415 25.548 232.436 25.3721C232.47 25.1926 232.516 25.0156 232.574 24.8423C232.632 24.6722 232.685 24.5283 232.73 24.4106C232.866 24.0469 233.027 23.6929 233.211 23.3509C233.4 23.0138 233.606 22.6864 233.828 22.3698C234.009 22.0478 234.209 21.7366 234.426 21.4377L235.092 20.5449C235.295 20.2964 235.501 20.0576 235.71 19.8287C235.916 19.6015 236.091 19.3473 236.229 19.0732C236.32 18.8901 236.285 18.7592 236.121 18.6808C235.983 18.6072 235.834 18.5543 235.68 18.5238C235.445 18.4493 235.193 18.4459 234.956 18.514C234.719 18.582 234.507 18.7185 234.347 18.9064C233.634 19.6913 233.024 20.5652 232.534 21.5064C232.191 21.7811 231.839 22.0559 231.554 22.36C231.097 22.8048 230.64 23.2332 230.182 23.6453C229.908 23.8938 229.634 24.1326 229.359 24.3615C229.075 24.5954 228.778 24.8117 228.467 25.0091C228.362 25.0642 228.26 25.1264 228.164 25.1955L227.801 25.4408C227.684 25.5165 227.559 25.579 227.429 25.6272C227.323 25.6597 227.211 25.6597 227.105 25.6272H227.037C226.943 25.5322 226.878 25.413 226.849 25.283C226.819 25.153 226.827 25.0173 226.87 24.8913C226.939 24.5577 226.988 24.3026 227.007 24.1162C227.027 23.9298 227.095 23.7925 227.125 23.6355C227.154 23.4785 227.203 23.3019 227.242 23.1155C227.491 22.8211 227.732 22.5235 227.968 22.2226L228.683 21.2906C229.278 20.4926 229.856 19.6815 230.418 18.8574C230.979 18.0332 231.512 17.1862 232.015 16.3162L234.896 16.0611L236.268 15.9728C236.261 16.0413 236.261 16.1104 236.268 16.1789C236.307 16.3025 236.388 16.4081 236.498 16.4766C236.608 16.545 236.738 16.5717 236.866 16.5517C237.152 16.4965 237.419 16.368 237.64 16.1789C237.753 16.0823 237.855 15.9737 237.944 15.8551C238.463 15.8551 238.924 15.7864 239.453 15.7766C240.04 15.7539 240.607 15.5557 241.08 15.2076C241.174 15.1596 241.26 15.0966 241.335 15.0211C241.407 14.9426 241.387 14.8413 241.276 14.717ZM216.776 21.3102L217.237 20.8491C217.486 20.5998 217.755 20.3702 218.04 20.1623C218.305 19.9668 218.587 19.796 218.883 19.6521C219.148 19.5245 219.324 19.554 219.412 19.7404C219.5 19.9268 219.412 19.917 219.255 20.0642C219.06 20.2309 218.853 20.3849 218.638 20.5253C218.393 20.6823 218.168 20.8294 217.952 20.957C217.814 21.0431 217.67 21.1186 217.521 21.1826C217.353 21.2896 217.176 21.3816 216.992 21.4574L216.462 21.6634L216.776 21.3102ZM193.354 24.5676C193.276 24.2818 193.276 23.9801 193.354 23.6943C193.447 23.386 193.568 23.0871 193.717 22.8015C193.868 22.5114 194.045 22.2355 194.246 21.9774C194.429 21.7437 194.625 21.5209 194.834 21.3102C195.166 21.0049 195.516 20.7199 195.882 20.4566C196.228 20.1945 196.637 20.0286 197.068 19.9759C197.408 19.9104 197.591 19.9628 197.617 20.1328C197.631 20.354 197.583 20.5746 197.48 20.7706C197.069 21.5237 196.517 22.1901 195.853 22.7328C195.189 23.2898 194.495 23.8106 193.775 24.2928L193.354 24.5676ZM225.841 15.963L226.027 15.7079C226.21 15.3874 226.4 15.0898 226.596 14.8151C226.792 14.5408 227.005 14.2787 227.233 14.0302L227.399 13.7849L227.056 14.5404C226.943 14.7895 226.815 15.0319 226.674 15.2664L226.194 16.12L225.674 16.2181C225.718 16.1362 225.767 16.0576 225.821 15.9826L225.841 15.963ZM223.881 19.3479C224.064 18.9555 224.26 18.5794 224.469 18.2196L225.086 17.1208L225.635 17.0521C225.518 17.2385 225.41 17.4053 225.292 17.5623C225.175 17.7192 225.067 17.8959 224.949 18.0823L224.244 19.0634C224.002 19.4101 223.757 19.7371 223.509 20.0445L223.881 19.3479ZM227.409 19.4362C226.978 20.3847 226.589 21.3658 226.243 22.3796C225.831 22.8637 225.39 23.3444 224.92 23.8219C224.473 24.2868 223.977 24.7014 223.44 25.0581L223.136 25.2642C223.009 25.3509 222.87 25.4202 222.725 25.4702C222.599 25.513 222.465 25.5297 222.333 25.5192C222.268 25.5116 222.206 25.4866 222.155 25.4468C222.103 25.4071 222.063 25.3542 222.039 25.2936C221.92 24.9804 221.896 24.6392 221.97 24.3125C222.033 23.997 222.114 23.6858 222.215 23.3804C222.287 23.1318 222.362 22.8735 222.44 22.6053C222.521 22.3405 222.619 22.0816 222.734 21.8302L223.558 21.0747C224.262 20.3547 224.917 19.5876 225.518 18.7789C225.766 18.4584 226.001 18.1313 226.223 17.7977L226.89 16.8166L228.34 16.6792H228.575H228.81C228.314 17.5753 227.85 18.4976 227.419 19.446L227.409 19.4362ZM229.879 17.5819L229.124 18.7004L228.605 19.3872L229.193 18.2196C229.33 17.9253 229.467 17.6309 229.624 17.3464C229.781 17.0619 229.928 16.7774 230.084 16.5026L230.378 16.4536H230.633L229.879 17.5819ZM232.025 14.1185C231.878 14.403 231.711 14.6974 231.525 14.9917C231.484 15.0286 231.453 15.0761 231.437 15.1291C231.42 15.182 231.39 15.2295 231.349 15.2664L230.761 15.3351L231.309 14.5404L231.878 13.7162C232.074 13.4415 232.273 13.1766 232.476 12.9215L232.789 12.48L232.476 13.1962L232.025 14.1185ZM92.4532 42.5026H93.8154C93.8309 42.7046 93.804 42.9076 93.7365 43.0985C93.669 43.2894 93.5624 43.4641 93.4234 43.6113C93.1537 43.849 92.8022 43.9721 92.4434 43.9547C92.2354 43.9725 92.0262 43.9368 91.8358 43.851C91.6454 43.7651 91.4801 43.632 91.3556 43.4642C91.1242 43.0807 91.0148 42.6358 91.042 42.1887C91.0034 41.7031 91.1466 41.2205 91.4438 40.8347C91.5651 40.6933 91.7154 40.5798 91.8846 40.5019C92.0537 40.424 92.2376 40.3836 92.4238 40.3834C92.7168 40.37 93.0071 40.4452 93.2568 40.5992C93.3709 40.6813 93.4677 40.785 93.5417 40.9046C93.6157 41.0241 93.6654 41.1571 93.688 41.2959H94.276C94.251 41.0479 94.1667 40.8097 94.0303 40.6013C93.8938 40.393 93.7091 40.2206 93.492 40.0989C93.1675 39.9342 92.8071 39.8533 92.4434 39.8634C92.1727 39.8547 91.9035 39.9056 91.6546 40.0124C91.4057 40.1192 91.1832 40.2793 91.0028 40.4815C90.592 40.9675 90.3817 41.5921 90.4148 42.2279C90.3792 42.8599 90.594 43.4804 91.0126 43.9547C91.3694 44.285 91.8399 44.4643 92.3258 44.4551C92.6656 44.4695 93.0034 44.3951 93.3058 44.2392C93.5023 44.1141 93.6776 43.9584 93.8252 43.7781L93.9722 44.3374H94.3544V42.0121H92.3944L92.4532 42.5026ZM79.38 16.9442C79.411 16.8571 79.447 16.7719 79.4878 16.6891C79.6161 16.4917 79.7639 16.3076 79.9288 16.1396C80.238 15.8356 80.5653 15.5506 80.9088 15.286C81.2289 15.0375 81.5556 14.7857 81.8888 14.5306C82.6541 14.0624 83.4534 13.6525 84.28 13.3042C85.0901 12.9509 85.897 12.6239 86.7006 12.323C87.5042 12.0221 88.3633 11.7311 89.278 11.4498C90.1469 11.1882 91.0257 10.9658 91.9142 10.7826L93.4724 10.5766C94.0019 10.4966 94.5403 10.4966 95.0698 10.5766C95.0011 10.6461 94.9388 10.7216 94.8836 10.8023C94.843 10.8474 94.8129 10.9011 94.7954 10.9592C94.6123 11.2142 94.4854 11.5051 94.423 11.8128L94.3544 12.0385C94.3311 12.1119 94.3311 12.1907 94.3544 12.2642C94.3266 12.3256 94.3234 12.3954 94.3452 12.4592C94.3671 12.523 94.4124 12.5761 94.472 12.6076C94.5307 12.6412 94.5995 12.6527 94.6659 12.6401C94.7324 12.6276 94.7922 12.5916 94.8346 12.5389C95.1182 12.2942 95.427 12.0804 95.7558 11.9011C96.0768 11.7294 96.3876 11.5394 96.6868 11.3321C96.9048 11.1831 97.0668 10.9656 97.1474 10.714C97.2147 10.4733 97.2147 10.2188 97.1474 9.97812C97.0908 9.74023 96.9801 9.51864 96.824 9.33057C96.657 9.13258 96.4298 8.99475 96.1772 8.93812C94.894 8.61257 93.5537 8.58238 92.2572 8.84981C90.9654 9.103 89.6893 9.43058 88.4352 9.83095C86.9684 10.2751 85.5314 10.8125 84.133 11.44C82.7241 12.0607 81.4054 12.8693 80.213 13.8438C79.8638 14.1263 79.5362 14.4346 79.233 14.766C78.9031 15.1129 78.6258 15.5063 78.4098 15.9336C78.2094 16.3272 78.0926 16.7582 78.0668 17.1992C78.0538 17.661 78.2108 18.1114 78.5078 18.4649C78.8008 18.8785 79.2261 19.1796 79.7132 19.3185C80.1909 19.4539 80.6874 19.5102 81.1832 19.4853L79.9778 19.8974C78.8262 20.3125 77.7352 20.8801 76.734 21.5849C75.6905 22.2722 74.7069 23.0468 73.794 23.9004C73.3996 24.2988 73.0266 24.718 72.6768 25.1562C72.3062 25.623 71.9783 26.1221 71.6968 26.6476C71.4173 27.1575 71.2158 27.7065 71.099 28.2762C70.9837 28.8293 71.0072 29.4024 71.1676 29.9442C71.2662 30.3119 71.4387 30.6556 71.6746 30.9542C71.9105 31.2528 72.2049 31.5001 72.5396 31.6808C73.2 32.0487 73.9198 32.2978 74.6662 32.4166C76.2517 32.7136 77.877 32.7302 79.4682 32.4657C81.0465 32.2147 82.596 31.8071 84.0938 31.2491C84.8234 30.969 85.5338 30.6413 86.2204 30.2679C86.9124 29.9093 87.5687 29.4855 88.1804 29.0023L88.5234 28.7079C88.6596 28.5829 88.7754 28.4372 88.8664 28.2762C88.9528 28.1265 89.0156 27.9644 89.0526 27.7955C89.0716 27.7225 89.0706 27.6458 89.05 27.5734C89.0293 27.5009 88.9896 27.4353 88.935 27.3834C88.846 27.2821 88.7229 27.2172 88.5892 27.2009C88.4555 27.1846 88.3204 27.2181 88.2098 27.2951C87.9717 27.4087 87.7424 27.5398 87.5238 27.6875C86.2781 28.5967 84.917 29.3358 83.4764 29.8853C82.0341 30.4336 80.5402 30.8346 79.0174 31.0823C78.2349 31.1975 77.4462 31.2663 76.6556 31.2883C75.8688 31.313 75.0828 31.2204 74.3232 31.0136C73.8727 30.9126 73.4507 30.7114 73.0884 30.4249C72.799 30.2243 72.5823 29.9351 72.471 29.6008C72.403 29.3286 72.394 29.0451 72.4447 28.7692C72.4955 28.4933 72.6047 28.2316 72.765 28.0015C73.058 27.5267 73.3856 27.0742 73.745 26.6476C74.2026 26.1009 74.697 25.5862 75.2248 25.1072C75.7475 24.6231 76.2963 24.1555 76.8712 23.7042C77.9537 22.8508 79.1231 22.1142 80.36 21.5064L84.0938 19.6226C84.4172 19.4853 84.721 19.3479 85.015 19.1909L85.9068 18.7298C86.2321 18.5734 86.5435 18.3896 86.8378 18.1804C86.922 18.1645 87.0084 18.1645 87.0926 18.1804C87.171 18.1804 87.2102 18.1182 87.2102 17.994C87.2102 17.8697 87.0795 17.7487 86.8182 17.6309L86.24 17.4347C85.9968 17.3428 85.7286 17.3428 85.4854 17.4347C85.2401 17.5246 84.9877 17.5935 84.7308 17.6408C84.4368 17.7062 83.9795 17.8304 83.3588 18.0136C82.754 18.1962 82.1342 18.3242 81.5066 18.3962C80.9706 18.4731 80.4242 18.4261 79.9092 18.2589C79.4649 18.1019 79.2657 17.7029 79.3114 17.0619C79.3114 17.0619 79.38 17.0717 79.38 16.9442ZM121.736 43.0913C121.838 42.8329 121.907 42.5626 121.941 42.2868H121.52C121.52 42.4242 121.52 42.5321 121.461 42.6106C121.402 42.6891 121.402 42.8068 121.353 42.9638L120.56 41.9826C120.748 41.8657 120.919 41.7238 121.069 41.5608C121.244 41.3558 121.338 41.0942 121.334 40.8249C121.335 40.71 121.313 40.596 121.269 40.4898C121.226 40.3836 121.161 40.2874 121.079 40.2068C120.984 40.12 120.873 40.0527 120.752 40.009C120.63 39.9652 120.502 39.9457 120.373 39.9517C120.226 39.9368 120.077 39.9536 119.937 40.001C119.797 40.0484 119.668 40.1252 119.56 40.2264C119.469 40.3181 119.397 40.4268 119.349 40.5464C119.3 40.6659 119.275 40.7939 119.276 40.923C119.279 41.0689 119.312 41.2125 119.374 41.3449C119.471 41.5421 119.596 41.7239 119.746 41.8845C119.497 42.0209 119.266 42.1891 119.06 42.3849C118.856 42.6136 118.747 42.9122 118.756 43.2189C118.755 43.5212 118.863 43.8139 119.06 44.043C119.186 44.1727 119.34 44.2726 119.509 44.3354C119.679 44.3982 119.86 44.4223 120.04 44.406C120.326 44.4112 120.608 44.3364 120.854 44.1902C121.017 44.0835 121.166 43.9548 121.295 43.8076L121.706 44.3079H122.392L121.618 43.3268C121.628 43.4543 121.677 43.3464 121.775 43.0913H121.736ZM119.776 40.6483C119.824 40.5744 119.891 40.5151 119.971 40.477C120.05 40.439 120.139 40.4235 120.226 40.4325C120.29 40.4292 120.354 40.4397 120.413 40.4634C120.472 40.4872 120.526 40.5234 120.569 40.5698C120.653 40.6605 120.699 40.78 120.697 40.9034C120.697 41.0707 120.634 41.2317 120.52 41.3547C120.406 41.4768 120.277 41.5854 120.138 41.6785C120.015 41.5441 119.904 41.3997 119.805 41.2468C119.741 41.1436 119.707 41.0247 119.707 40.9034C119.731 40.8038 119.786 40.7145 119.864 40.6483H119.776ZM120.569 43.8272C120.401 43.9367 120.202 43.9915 120.001 43.9842C119.806 43.9828 119.616 43.9173 119.462 43.7977C119.378 43.736 119.311 43.6544 119.266 43.5602C119.222 43.466 119.202 43.3622 119.207 43.2581C119.202 43.0569 119.271 42.8608 119.403 42.7087C119.566 42.5447 119.747 42.3998 119.942 42.277L120.922 43.4838C120.855 43.6131 120.765 43.7294 120.658 43.8272H120.569ZM167.551 42.3457H169.942V41.8453H167.551V40.5109H170.138V39.9713H166.972V44.3472H170.177V43.8272H167.541L167.551 42.3457ZM226.282 42.3457H228.673V41.8453H226.38V40.5109H228.967V39.9713H225.792V44.3472H228.997V43.8272H226.38L226.282 42.3457ZM189.101 41.963L188.503 41.8257C188.24 41.775 187.984 41.6961 187.739 41.5902C187.656 41.5439 187.588 41.4751 187.543 41.3917C187.498 41.3083 187.477 41.2139 187.484 41.1192C187.483 41.024 187.502 40.9295 187.539 40.8418C187.576 40.754 187.631 40.6748 187.699 40.6091C187.8 40.5268 187.916 40.4653 188.04 40.4282C188.165 40.3912 188.295 40.3793 188.425 40.3932C188.588 40.3764 188.754 40.3988 188.907 40.4585C189.06 40.5182 189.197 40.6135 189.307 40.7366C189.414 40.8973 189.478 41.0833 189.493 41.2762H190.12C190.137 41.0743 190.102 40.8713 190.02 40.6861C189.938 40.501 189.811 40.3395 189.65 40.2166C189.316 39.987 188.918 39.8702 188.513 39.883C188.106 39.8573 187.705 39.991 187.396 40.2559C187.265 40.3822 187.162 40.5351 187.094 40.7042C187.027 40.8734 186.996 41.055 187.004 41.237C186.995 41.3959 187.027 41.5544 187.097 41.6971C187.168 41.8398 187.274 41.9618 187.405 42.0513C187.652 42.1896 187.921 42.2858 188.199 42.3359L188.768 42.4732C189.009 42.5185 189.241 42.6048 189.454 42.7283C189.529 42.7885 189.589 42.8668 189.626 42.9559C189.664 43.045 189.679 43.1422 189.669 43.2385C189.671 43.3897 189.622 43.537 189.529 43.6565C189.437 43.7759 189.306 43.8603 189.16 43.8959C188.971 43.9623 188.772 43.9955 188.572 43.994C188.385 44.0118 188.197 43.9814 188.025 43.9059C187.854 43.8303 187.705 43.712 187.592 43.5623C187.484 43.3775 187.427 43.1678 187.425 42.954H186.866C186.854 43.1613 186.887 43.3689 186.963 43.5622C187.039 43.7554 187.157 43.9296 187.307 44.0725C187.653 44.3657 188.1 44.5134 188.552 44.4845C188.972 44.4929 189.386 44.3842 189.748 44.1706C189.919 44.0603 190.058 43.9051 190.147 43.7218C190.237 43.5384 190.275 43.334 190.257 43.1306C190.268 42.9603 190.237 42.7899 190.167 42.6344C190.097 42.4788 189.99 42.3427 189.855 42.2377C189.654 42.102 189.427 42.0085 189.189 41.963H189.101ZM179.085 41.963L178.487 41.8257C178.225 41.775 177.969 41.6961 177.723 41.5902C177.64 41.5439 177.572 41.4751 177.527 41.3917C177.482 41.3083 177.462 41.2139 177.468 41.1192C177.467 41.024 177.486 40.9295 177.523 40.8418C177.56 40.754 177.615 40.6748 177.684 40.6091C177.784 40.5268 177.9 40.4653 178.025 40.4282C178.149 40.3912 178.28 40.3793 178.409 40.3932C178.573 40.3764 178.738 40.3988 178.891 40.4585C179.045 40.5182 179.182 40.6135 179.291 40.7366C179.399 40.8973 179.463 41.0833 179.477 41.2762H180.036C180.053 41.0743 180.018 40.8713 179.936 40.6861C179.854 40.501 179.726 40.3395 179.565 40.2166C179.232 39.987 178.833 39.8702 178.429 39.883C178.049 39.8665 177.676 39.9886 177.38 40.2264C177.249 40.3528 177.146 40.5056 177.079 40.6748C177.011 40.8439 176.98 41.0255 176.988 41.2076C176.979 41.3665 177.011 41.525 177.082 41.6677C177.152 41.8104 177.258 41.9324 177.39 42.0219C177.637 42.1602 177.905 42.2564 178.184 42.3064L178.752 42.4438C178.994 42.489 179.226 42.5753 179.438 42.6989C179.514 42.7591 179.573 42.8373 179.611 42.9265C179.648 43.0156 179.663 43.1128 179.654 43.2091C179.656 43.3602 179.606 43.5076 179.514 43.627C179.421 43.7465 179.291 43.8309 179.144 43.8664C178.955 43.9328 178.756 43.966 178.556 43.9645C178.369 43.9823 178.181 43.952 178.01 43.8764C177.838 43.8009 177.689 43.6826 177.576 43.5328C177.468 43.3481 177.411 43.1384 177.409 42.9245H176.851C176.838 43.1319 176.871 43.3395 176.947 43.5327C177.024 43.7259 177.141 43.9001 177.292 44.043C177.638 44.3362 178.084 44.4839 178.536 44.4551C178.955 44.4665 179.369 44.3612 179.732 44.1509C179.904 44.0407 180.042 43.8855 180.132 43.7021C180.222 43.5188 180.26 43.3144 180.242 43.1109C180.252 42.9406 180.221 42.7703 180.151 42.6148C180.081 42.4592 179.974 42.323 179.84 42.2181C179.637 42.0893 179.41 42.0025 179.173 41.963H179.085ZM190.571 19.5049C190.896 19.4578 191.223 19.4284 191.551 19.4166C191.879 19.4058 192.206 19.3763 192.531 19.3283L193.217 19.1615C193.334 19.1411 193.445 19.0931 193.541 19.0215C193.636 18.9499 193.713 18.8566 193.766 18.7494C193.826 18.6416 193.843 18.515 193.814 18.3949C193.785 18.2749 193.712 18.1702 193.609 18.1019C193.421 17.9578 193.221 17.8298 193.011 17.7192C192.726 17.6085 192.425 17.5455 192.119 17.5328C191.812 17.5163 191.505 17.5163 191.198 17.5328C190.439 17.5573 189.683 17.6326 188.934 17.7585L186.71 18.1509L184.446 18.563L184.926 17.8468L187.396 14.0008C187.556 13.7959 187.707 13.5831 187.846 13.363L188.258 12.6959C189.29 12.5389 190.319 12.3917 191.345 12.2543C192.371 12.117 193.4 11.9894 194.432 11.8717C196.007 11.7147 197.568 11.5839 199.116 11.4792C200.665 11.3746 202.226 11.2896 203.801 11.2242C205.238 11.1587 206.689 11.126 208.152 11.126C208.681 11.126 209.253 11.1555 209.867 11.2143C210.445 11.2794 211.03 11.1772 211.553 10.92C211.781 10.8088 211.879 10.6616 211.847 10.4785C211.814 10.2956 211.725 10.1275 211.592 9.99774C211.388 9.80675 211.138 9.6716 210.867 9.60529C210.609 9.54716 210.346 9.51755 210.083 9.51698C208.665 9.51698 207.247 9.51698 205.829 9.51698C204.255 9.51698 202.684 9.55623 201.116 9.63472C199.548 9.71321 197.976 9.82113 196.402 9.95849C195.095 10.0762 193.808 10.2136 192.541 10.3706C191.273 10.5275 189.999 10.7238 188.719 10.9592C188.647 10.8413 188.562 10.7326 188.464 10.6355C188.356 10.5374 188.238 10.5374 188.101 10.6355C187.889 10.7777 187.712 10.9654 187.582 11.1849L186.994 11.283L184.73 11.7736C183.972 11.9371 183.231 12.1072 182.505 12.2838C182.251 12.3557 181.976 12.4179 181.682 12.4702C181.401 12.5211 181.125 12.6 180.859 12.7057C180.608 12.8096 180.376 12.9556 180.173 13.1374C179.962 13.3339 179.809 13.5852 179.732 13.8634C179.683 14.0127 179.653 14.1677 179.644 14.3245C179.644 14.4913 179.752 14.5404 180.006 14.4423C180.256 14.3285 180.515 14.2365 180.781 14.1675L181.584 13.9615L183.544 13.5494C184.198 13.4121 184.851 13.2845 185.504 13.1668L186.327 13.0294L185.073 14.717C184.57 15.4234 184.083 16.1396 183.613 16.8657C183.142 17.5917 182.679 18.3177 182.221 19.0438C181.628 19.1743 181.045 19.3481 180.477 19.5638C179.908 19.7576 179.417 20.129 179.075 20.6234C178.958 20.7804 178.938 20.8883 178.987 20.9472C179.065 21.0101 179.162 21.0447 179.262 21.0453C179.398 21.0624 179.537 21.0624 179.673 21.0453H179.997C180.198 21.025 180.397 20.9922 180.594 20.9472L181.192 20.8098L180.673 21.6634C180.307 22.2586 179.957 22.8375 179.624 23.4C179.291 23.9625 178.964 24.5414 178.644 25.1366C178.298 25.7318 177.971 26.327 177.664 26.9223L176.684 28.7079C176.539 28.9854 176.354 29.24 176.135 29.4634C175.925 29.6768 175.732 29.9064 175.557 30.1502C175.368 30.4108 175.201 30.6864 175.057 30.9743C174.907 31.2752 174.763 31.5728 174.626 31.8672C174.371 32.4624 174.143 33.074 173.94 33.7019C173.739 34.3162 173.636 34.9587 173.636 35.6053C173.636 35.8604 173.695 36.1155 173.734 36.3804C173.777 36.6358 173.856 36.8837 173.97 37.1162L174.136 37.3517C174.203 37.4417 174.286 37.5182 174.381 37.5774C174.418 37.6033 174.459 37.621 174.503 37.6295C174.547 37.638 174.592 37.6369 174.636 37.6264C174.714 37.6264 174.793 37.5087 174.861 37.3517C174.961 37.1681 175.04 36.974 175.097 36.7728C175.162 36.5439 175.217 36.3379 175.263 36.1547C175.374 35.8604 175.495 35.5628 175.626 35.2619C175.753 34.9675 175.871 34.6634 175.988 34.3691C176.557 32.9301 177.184 31.5172 177.87 30.1306C178.556 28.7439 179.275 27.3638 180.026 25.9902C181.058 24.0672 182.156 22.1801 183.319 20.3291L184.71 20.074L186.131 19.8483L188.376 19.6619L190.571 19.5049ZM218.226 44.3472H218.824V39.9811H218.226V44.3472ZM198.94 39.8634C198.617 39.8444 198.294 39.9084 198.003 40.0492C197.711 40.1899 197.46 40.4029 197.274 40.6679C196.973 41.1133 196.819 41.6415 196.833 42.1789C196.81 42.7613 196.99 43.3337 197.343 43.7977C197.556 44.0161 197.812 44.1878 198.095 44.302C198.378 44.4162 198.681 44.4704 198.986 44.4612C199.291 44.452 199.59 44.3795 199.866 44.2484C200.141 44.1173 200.387 43.9305 200.586 43.6996C200.932 43.2287 201.108 42.6547 201.086 42.0709C201.108 41.5432 200.957 41.0227 200.655 40.5894C200.452 40.3355 200.188 40.1362 199.889 40.0095C199.59 39.8828 199.264 39.8326 198.94 39.8634ZM200.126 43.3857C200.005 43.5714 199.837 43.7213 199.639 43.8197C199.44 43.9181 199.219 43.9613 198.999 43.9449C198.775 43.9641 198.551 43.9285 198.344 43.8413C198.138 43.7542 197.955 43.618 197.813 43.4445C197.559 43.0877 197.431 42.656 197.45 42.2181C197.415 41.7221 197.569 41.2312 197.882 40.8445C198.022 40.692 198.194 40.5718 198.385 40.4922C198.576 40.4126 198.782 40.3755 198.989 40.3834C199.196 40.374 199.402 40.4115 199.592 40.4931C199.782 40.5746 199.951 40.6981 200.087 40.8543C200.366 41.2039 200.509 41.6433 200.488 42.0906C200.491 42.5491 200.361 42.9986 200.116 43.3857H200.126ZM237.915 41.9532L237.317 41.8159C237.054 41.7652 236.798 41.6863 236.552 41.5804C236.47 41.5341 236.402 41.4653 236.357 41.3819C236.312 41.2985 236.291 41.204 236.298 41.1094C236.297 41.0142 236.315 40.9197 236.353 40.832C236.39 40.7442 236.444 40.665 236.513 40.5992C236.614 40.517 236.73 40.4555 236.854 40.4184C236.979 40.3814 237.109 40.3695 237.238 40.3834C237.402 40.3666 237.567 40.389 237.721 40.4487C237.874 40.5084 238.011 40.6037 238.12 40.7268C238.228 40.8875 238.292 41.0734 238.307 41.2664H238.865C238.882 41.0645 238.848 40.8615 238.765 40.6763C238.683 40.4912 238.556 40.3297 238.395 40.2068C238.061 39.9772 237.663 39.8604 237.258 39.8732C236.851 39.8474 236.451 39.9812 236.141 40.246C236.01 40.3724 235.907 40.5253 235.839 40.6944C235.772 40.8636 235.741 41.0452 235.749 41.2272C235.74 41.3861 235.772 41.5446 235.843 41.6873C235.913 41.83 236.019 41.952 236.151 42.0415C236.398 42.1798 236.666 42.276 236.944 42.326L237.513 42.4634C237.754 42.5087 237.986 42.5949 238.199 42.7185C238.274 42.7787 238.334 42.857 238.372 42.9461C238.409 43.0352 238.424 43.1324 238.414 43.2287C238.416 43.3798 238.367 43.5272 238.275 43.6466C238.182 43.7661 238.052 43.8505 237.905 43.886C237.716 43.9525 237.517 43.9857 237.317 43.9842C237.13 44.002 236.942 43.9716 236.771 43.896C236.599 43.8205 236.45 43.7022 236.337 43.5525C236.229 43.3677 236.172 43.158 236.17 42.9442H235.612C235.599 43.1515 235.632 43.3591 235.708 43.5523C235.784 43.7456 235.902 43.9198 236.053 44.0626C236.399 44.3559 236.845 44.5035 237.297 44.4747C237.717 44.4831 238.131 44.3744 238.493 44.1608C238.664 44.0505 238.803 43.8953 238.893 43.712C238.982 43.5286 239.02 43.3242 239.002 43.1208C239.013 42.9505 238.982 42.7801 238.912 42.6246C238.842 42.469 238.735 42.3329 238.601 42.2279C238.39 42.0919 238.153 42.0016 237.905 41.963L237.915 41.9532ZM137.563 39.9909L135.916 44.357H136.524L136.994 43.0521H138.709L139.16 44.3472H139.807L138.18 39.9811L137.563 39.9909ZM137.171 42.5713L137.866 40.6091L138.543 42.5713H137.171ZM159.436 43.4543C159.331 43.6167 159.185 43.7485 159.013 43.8363C158.841 43.9242 158.649 43.965 158.456 43.9547C158.255 43.9678 158.054 43.9307 157.871 43.8468C157.688 43.7629 157.529 43.6348 157.408 43.474C157.159 43.1077 157.035 42.6705 157.055 42.2279C157.016 41.7317 157.155 41.2379 157.447 40.8347C157.568 40.6928 157.718 40.5789 157.887 40.501C158.056 40.4231 158.241 40.3829 158.427 40.3834C158.703 40.3573 158.979 40.4368 159.199 40.6061C159.419 40.7754 159.567 41.0219 159.613 41.2959H160.191C160.15 40.9186 159.972 40.5695 159.691 40.3147C159.518 40.1606 159.317 40.0423 159.098 39.9665C158.879 39.8908 158.648 39.859 158.417 39.8732C158.13 39.8597 157.844 39.914 157.582 40.0316C157.32 40.1492 157.089 40.3268 156.908 40.5502C156.551 41.0673 156.374 41.6874 156.405 42.315C156.435 42.9426 156.67 43.5429 157.074 44.0234C157.421 44.3338 157.874 44.4989 158.339 44.4845C158.596 44.4966 158.852 44.4529 159.091 44.3563C159.329 44.2598 159.544 44.1128 159.72 43.9253C160.013 43.6063 160.192 43.1992 160.23 42.7676H159.74C159.681 43.0071 159.578 43.2334 159.436 43.4347V43.4543ZM149.087 43.4543C148.982 43.6167 148.837 43.7485 148.665 43.8363C148.492 43.9242 148.3 43.965 148.107 43.9547C147.907 43.9678 147.706 43.9307 147.523 43.8468C147.339 43.7629 147.18 43.6348 147.059 43.474C146.81 43.1077 146.686 42.6705 146.706 42.2279C146.668 41.7317 146.807 41.2379 147.098 40.8347C147.219 40.6928 147.369 40.5789 147.538 40.501C147.708 40.4231 147.892 40.3829 148.078 40.3834C148.354 40.3573 148.63 40.4368 148.85 40.6061C149.07 40.7754 149.218 41.0219 149.264 41.2959H149.842C149.801 40.9186 149.623 40.5695 149.342 40.3147C149.169 40.1606 148.968 40.0423 148.749 39.9665C148.531 39.8908 148.299 39.859 148.068 39.8732C147.781 39.8597 147.495 39.914 147.233 40.0316C146.971 40.1492 146.74 40.3268 146.559 40.5502C146.203 41.0673 146.026 41.6874 146.056 42.315C146.086 42.9426 146.321 43.5429 146.726 44.0234C147.072 44.3338 147.525 44.4989 147.99 44.4845C148.247 44.4966 148.503 44.4529 148.742 44.3563C148.98 44.2598 149.195 44.1128 149.372 43.9253C149.664 43.6063 149.844 43.1992 149.881 42.7676H149.303C149.272 43.0011 149.199 43.2271 149.087 43.4347V43.4543ZM166.277 22.0559L165.904 21.7125C165.721 21.5555 165.571 21.5555 165.453 21.7125C165.405 21.8509 165.388 21.9984 165.404 22.1442C165.423 22.2874 165.423 22.4326 165.404 22.5759C165.364 22.8868 165.271 23.1887 165.13 23.4687C164.861 24.1043 164.479 24.686 164.003 25.1857C163.825 25.3866 163.635 25.5766 163.435 25.7547C163.217 25.9475 162.98 26.1184 162.729 26.2649C162.487 26.4087 162.227 26.5177 161.955 26.5887C161.701 26.6584 161.434 26.6584 161.181 26.5887V26.5887C161.118 26.5435 161.068 26.4846 161.032 26.4165C160.996 26.3485 160.977 26.2731 160.975 26.1962C160.957 25.984 160.957 25.7707 160.975 25.5585C160.985 25.3405 161.015 25.1238 161.063 24.9109L161.161 24.4302C161.164 24.3441 161.188 24.26 161.23 24.1849C161.622 23.8906 161.984 23.5766 162.347 23.2038C162.71 22.8793 163.039 22.5176 163.327 22.1245C163.44 21.9393 163.488 21.722 163.464 21.5064C163.445 21.3143 163.374 21.1311 163.258 20.9766C163.14 20.8259 162.979 20.7133 162.798 20.6528C162.591 20.5818 162.367 20.5818 162.161 20.6528C161.73 20.8301 161.368 21.1437 161.132 21.5457C160.858 21.9795 160.628 22.4396 160.446 22.9192C159.964 23.3146 159.46 23.6815 158.936 24.0181L157.956 24.5676L156.976 25.117L156.202 25.4898C155.961 25.6347 155.679 25.6967 155.399 25.6664C155.36 25.267 155.456 24.866 155.673 24.5283C155.902 24.1424 156.107 23.8153 156.29 23.5472C156.473 23.279 156.764 22.9258 157.163 22.4876C157.47 22.1474 157.796 21.8204 158.143 21.5064C158.464 21.1852 158.819 20.8991 159.201 20.6528C159.585 20.4061 159.988 20.1896 160.406 20.0053C160.781 19.8239 161.187 19.7173 161.602 19.6913L162.043 19.6423C162.186 19.6225 162.332 19.6538 162.455 19.7306C162.503 19.76 162.559 19.7755 162.616 19.7755C162.673 19.7755 162.729 19.76 162.778 19.7306C162.856 19.6623 162.913 19.5741 162.945 19.4755C162.983 19.3778 162.983 19.269 162.945 19.1713C162.918 19.116 162.88 19.0671 162.832 19.0281C162.785 18.9892 162.73 18.961 162.67 18.9457C162.67 18.9457 162.67 18.9457 162.553 18.9457C162.496 18.9249 162.443 18.8951 162.396 18.8574L162.072 18.7592L161.749 18.6906C161.19 18.6004 160.619 18.6305 160.073 18.7789C159.521 18.9296 158.983 19.1299 158.466 19.3774C157.469 19.8594 156.571 20.525 155.82 21.3396L155.732 21.4672C155.215 21.8049 154.718 22.1718 154.242 22.566C153.713 22.9912 153.174 23.4098 152.625 23.8219L152.008 24.283C151.779 24.4531 151.534 24.6199 151.273 24.7834C151.024 24.9373 150.753 25.053 150.469 25.1268C150.222 25.1954 149.961 25.1954 149.715 25.1268C149.656 25.0276 149.62 24.9173 149.607 24.803C149.584 24.66 149.584 24.5143 149.607 24.3713C149.631 24.1634 149.667 23.957 149.715 23.7532C149.715 23.5472 149.803 23.3509 149.852 23.1645C149.948 22.7398 150.085 22.3256 150.263 21.9283L150.91 21.4868C151.733 20.8808 152.518 20.2255 153.262 19.5245C154.053 18.7789 154.814 17.994 155.546 17.1698C156.277 16.3457 156.973 15.5117 157.633 14.6679C158.286 13.8242 158.881 12.9902 159.417 12.166L159.916 11.3615C160.109 11.0485 160.276 10.7204 160.416 10.3804C160.55 10.0693 160.63 9.73741 160.651 9.39925C160.678 9.0834 160.579 8.76974 160.377 8.52604C160.287 8.3932 160.17 8.28143 160.033 8.19843C159.896 8.11543 159.742 8.06318 159.583 8.04529C159.271 8.02408 158.959 8.07791 158.672 8.20227C158.353 8.3355 158.053 8.51034 157.78 8.72227C157.493 8.93812 157.257 9.1278 157.074 9.29132C156.01 10.3046 155.027 11.4003 154.134 12.5683C153.22 13.7457 152.364 14.9525 151.567 16.1887C151.155 16.8428 150.76 17.4969 150.381 18.1509C150.002 18.805 149.653 19.5082 149.332 20.2604C149.166 20.6332 149.019 21.0453 148.862 21.4476C148.763 21.5636 148.654 21.6718 148.539 21.7713C148.036 22.2276 147.509 22.6567 146.961 23.0566C146.412 23.4556 145.84 23.8513 145.246 24.2438C144.9 24.4465 144.55 24.6395 144.197 24.8226C143.836 25.0082 143.463 25.1688 143.08 25.3034L142.698 25.4408C142.571 25.4854 142.439 25.515 142.306 25.5291C142.196 25.5442 142.083 25.5272 141.982 25.48C141.894 25.48 141.845 25.323 141.845 25.1366C141.848 24.7419 141.949 24.3542 142.139 24.0083C142.335 23.642 142.548 23.2757 142.776 22.9094L143.149 22.8408C143.933 22.7243 144.696 22.4929 145.412 22.154C145.69 22.0103 145.958 21.8497 146.216 21.6732C146.518 21.4718 146.789 21.2272 147.02 20.9472C147.236 20.6941 147.394 20.3958 147.48 20.074C147.523 19.9042 147.524 19.7268 147.485 19.5563C147.446 19.3858 147.367 19.227 147.255 19.0928C147.142 18.9387 146.994 18.8132 146.824 18.7263C146.654 18.6394 146.466 18.5936 146.275 18.5925C145.864 18.584 145.455 18.6539 145.069 18.7985C144.649 18.9518 144.248 19.1526 143.874 19.397C143.554 19.5952 143.255 19.8253 142.982 20.0838C142.568 20.511 142.198 20.9776 141.875 21.477C141.541 21.7026 141.208 21.9283 140.895 22.1638L139.278 23.3804C139.003 23.5635 138.729 23.763 138.454 23.9789C138.182 24.1952 137.898 24.395 137.602 24.5774L136.935 24.9894C136.725 25.1481 136.463 25.2217 136.2 25.1955C136.241 24.9369 136.327 24.6877 136.455 24.4596C136.611 24.163 136.788 23.8778 136.984 23.606C137.187 23.3182 137.393 23.0501 137.602 22.8015L138.121 22.1834L140.797 18.7494C140.895 18.6682 140.963 18.5568 140.991 18.4327C141.02 18.3085 141.006 18.1784 140.953 18.0626C140.918 17.9402 140.843 17.833 140.74 17.7583C140.637 17.6836 140.512 17.6457 140.385 17.6506C140.295 17.6502 140.206 17.6683 140.124 17.7037C140.041 17.7392 139.966 17.7912 139.905 17.8566L139.532 18.2294L138.092 19.6226L136.622 20.9766C136.093 21.4606 135.567 21.9283 135.044 22.3796C134.521 22.8309 133.973 23.2888 133.398 23.7532C133.12 23.9389 132.852 24.1386 132.594 24.3517C132.327 24.5708 132.046 24.7708 131.751 24.9502L131.291 25.2053L130.83 25.4309C130.777 25.4635 130.716 25.4805 130.654 25.48L130.409 25.5291C130.474 25.2937 130.573 25.069 130.703 24.8619C130.872 24.5545 131.055 24.247 131.251 23.9396L131.8 23.0762C131.898 22.9159 132.006 22.7619 132.124 22.6151C132.516 22.0918 132.921 21.5653 133.339 21.0355C133.757 20.5057 134.198 19.9922 134.662 19.4951C134.779 19.3774 134.799 19.2989 134.75 19.24C134.666 19.1743 134.562 19.1396 134.456 19.1419C134.319 19.1306 134.181 19.1306 134.044 19.1419H133.799C133.512 19.205 133.241 19.3287 133.006 19.5049L132.32 20.0347C131.844 20.5075 131.417 21.0269 131.046 21.5849L129.811 22.566C129.399 22.9062 128.978 23.2332 128.547 23.5472C128.292 23.7336 128.037 23.9004 127.772 24.0574L126.998 24.5381L126.449 24.8815C126.359 24.9532 126.255 25.0058 126.144 25.0361C126.033 25.0665 125.917 25.074 125.803 25.0581C125.803 25.0581 125.803 24.9698 125.803 24.8717C125.846 24.7472 125.899 24.6259 125.959 24.5087C126.028 24.3713 126.097 24.2438 126.165 24.1359L126.302 23.8906C126.531 23.5243 126.76 23.1743 126.988 22.8408L127.674 21.8596C127.792 21.6732 127.91 21.4672 128.037 21.2219C128.159 20.9988 128.242 20.7566 128.282 20.5057C128.316 20.2794 128.286 20.048 128.194 19.8385C128.133 19.7232 128.049 19.6213 127.948 19.5388C127.847 19.4562 127.731 19.3947 127.606 19.3577C127.219 19.2442 126.805 19.2756 126.44 19.446C126.078 19.6043 125.725 19.7811 125.381 19.9759C125.016 20.1801 124.666 20.4096 124.333 20.6626L123.353 21.4181C122.987 21.6928 122.627 21.9741 122.275 22.2619C121.922 22.5497 121.595 22.8408 121.295 23.1351C121.157 23.2528 121.02 23.3706 120.883 23.5177C120.746 23.6539 120.599 23.7786 120.442 23.8906L120.54 23.5472L121.52 21.9381L121.755 21.477C121.844 21.3109 121.907 21.1322 121.941 20.9472C121.974 20.7721 121.974 20.5924 121.941 20.4174C121.904 20.2403 121.798 20.0852 121.647 19.9857C121.44 19.846 121.19 19.7835 120.942 19.8091C120.671 19.8351 120.406 19.9047 120.158 20.0151C119.895 20.1303 119.642 20.2682 119.403 20.4272L118.805 20.8392C118.688 20.9276 118.58 21.0551 118.462 21.1532H118.394C118.275 21.2675 118.151 21.3756 118.021 21.477C117.727 21.7059 117.443 21.9479 117.169 22.203C116.894 22.4581 116.61 22.7099 116.316 22.9585L115.424 23.7336C115.124 23.9952 114.814 24.2536 114.493 24.5087L113.739 25.0974C113.498 25.2861 113.216 25.4139 112.916 25.4702C112.882 25.3183 112.882 25.1609 112.916 25.0091C112.96 24.8324 113.016 24.6587 113.082 24.4891C113.148 24.319 113.216 24.1587 113.288 24.0083C113.336 23.8965 113.391 23.7883 113.455 23.6845C113.866 23.2921 114.255 22.8964 114.621 22.4974C114.987 22.0984 115.339 21.6928 115.679 21.2808L115.973 20.8C116.016 20.7201 116.039 20.6307 116.039 20.54C116.039 20.4493 116.016 20.3599 115.973 20.28C115.956 20.1872 115.933 20.0954 115.905 20.0053C115.905 19.9366 115.905 19.8581 115.836 19.76C115.823 19.7187 115.797 19.6828 115.761 19.6579C115.726 19.6331 115.683 19.6207 115.64 19.6226C115.615 19.6251 115.592 19.6324 115.57 19.6441C115.548 19.6558 115.529 19.6717 115.514 19.6908C115.498 19.71 115.487 19.7321 115.48 19.7557C115.473 19.7794 115.471 19.8042 115.473 19.8287C114.925 20.3127 114.412 20.8 113.935 21.2906C113.437 21.8049 113 22.3744 112.631 22.9879L112.426 23.3706L111.691 23.9494L110.956 24.4989L110.564 24.7932C110.387 24.9233 110.204 25.0445 110.015 25.1562C109.836 25.2631 109.645 25.3487 109.446 25.4113C109.37 25.4429 109.289 25.4592 109.206 25.4592C109.124 25.4592 109.042 25.4429 108.966 25.4113C108.91 25.3646 108.867 25.3034 108.843 25.2342C108.819 25.1651 108.814 25.0906 108.829 25.0189C108.854 24.8376 108.9 24.6599 108.966 24.4891C109.035 24.3052 109.12 24.1279 109.221 23.9592C109.329 23.7925 109.397 23.6551 109.446 23.5668C109.902 22.8506 110.441 22.1918 111.054 21.6045C111.646 21.0326 112.328 20.562 113.072 20.2113C113.819 19.8603 114.601 19.5906 115.405 19.4068C115.522 19.4068 115.581 19.3479 115.591 19.2891C115.611 19.2353 115.611 19.176 115.591 19.1223C115.548 19.0584 115.495 19.002 115.434 18.9555L115.268 18.8377C114.912 18.727 114.542 18.6675 114.17 18.6611C113.348 18.6596 112.541 18.8835 111.838 19.3087C111.115 19.7237 110.455 20.239 109.878 20.8392C109.68 21.0519 109.494 21.2746 109.319 21.5064L109.025 21.7517C108.659 22.0722 108.306 22.3992 107.967 22.7328C107.627 23.0664 107.3 23.3935 106.987 23.714L106.007 24.6951C105.744 24.9723 105.452 25.2191 105.134 25.4309C105.017 25.1144 105.017 24.7664 105.134 24.4498C105.239 24.0574 105.314 23.7303 105.36 23.4687C105.406 23.207 105.461 22.88 105.526 22.4876C105.526 22.1736 105.605 21.8596 105.634 21.5064C105.639 21.0957 105.531 20.6917 105.321 20.3389C105.216 20.1754 105.071 20.0422 104.899 19.9527C104.727 19.8632 104.534 19.8204 104.341 19.8287C103.686 19.8384 103.051 20.0471 102.518 20.4272C101.923 20.8262 101.388 21.2088 100.911 21.5751C100.434 21.9414 99.8947 22.3404 99.2936 22.7721L99.568 22.3404C99.6562 22.1932 99.7346 22.046 99.813 21.9087C100 21.5911 100.171 21.2636 100.323 20.9276C100.477 20.6159 100.592 20.2864 100.666 19.9464C100.739 19.7063 100.732 19.4486 100.645 19.2129C100.559 18.9772 100.397 18.7765 100.185 18.6415C99.9714 18.5292 99.7313 18.4764 99.49 18.4885C99.2488 18.5005 99.0151 18.5771 98.8134 18.7102C98.0967 19.098 97.4371 19.5834 96.8534 20.1525C96.2589 20.7281 95.6774 21.3004 95.109 21.8694L93.4626 23.4785L94.668 21.6536C94.8052 21.405 94.9489 21.1532 95.0992 20.8981C95.2445 20.6568 95.3441 20.3907 95.3932 20.1132C95.3932 20.1132 95.3932 19.9857 95.3932 19.7894C95.3932 19.5932 95.3932 19.4951 95.305 19.4951C95.2553 19.4069 95.1885 19.3297 95.1084 19.2679C95.0283 19.2061 94.9366 19.1611 94.8388 19.1354C94.741 19.1098 94.639 19.1041 94.539 19.1187C94.4389 19.1333 94.3428 19.1679 94.2564 19.2204C93.7708 19.4732 93.3304 19.8047 92.953 20.2015C92.5142 20.636 92.1111 21.1052 91.7476 21.6045L91.0126 22.5857C90.9855 22.6189 90.9708 22.6605 90.9708 22.7034C90.9708 22.7463 90.9855 22.7879 91.0126 22.8211C91.0401 22.8481 91.077 22.8632 91.1155 22.8632C91.154 22.8632 91.1909 22.8481 91.2184 22.8211L91.336 22.7328L91.4242 22.6445C91.7639 22.396 92.0906 22.1442 92.4042 21.8891L93.5704 20.9079L93.8154 20.6626C93.9242 20.5551 94.0387 20.4536 94.1584 20.3585C94.1132 20.4477 94.0608 20.533 94.0016 20.6136C93.9576 20.6726 93.9183 20.7349 93.884 20.8C93.7664 21.006 93.6488 21.2023 93.5214 21.3789L93.1588 21.9283C92.9301 22.2946 92.7015 22.6478 92.4728 22.9879C92.2441 23.3281 92.0285 23.6845 91.826 24.0574C91.689 24.2818 91.5804 24.5224 91.5026 24.7736C91.4484 25.012 91.4654 25.2611 91.5516 25.4898C91.5825 25.567 91.6372 25.6324 91.7076 25.6765C91.7781 25.7205 91.8607 25.7411 91.9436 25.7351C92.1031 25.7438 92.2621 25.71 92.4042 25.637C92.7372 25.5124 93.0361 25.3107 93.2764 25.0483L94.0114 24.2928L94.9914 23.4C95.3246 23.0991 95.6513 22.7884 95.9714 22.4679L96.9514 21.5751L97.9314 20.6823L98.6664 20.0838C98.9084 19.8786 99.1791 19.71 99.47 19.5834C99.4755 19.6356 99.4755 19.6882 99.47 19.7404C99.4647 19.7926 99.4647 19.8452 99.47 19.8974C99.4618 19.9527 99.4618 20.0089 99.47 20.0642C99.4271 20.2362 99.3681 20.4037 99.2936 20.5645L99.0878 21.0257C98.9523 21.3609 98.7985 21.6884 98.6272 22.0068C98.4573 22.3142 98.2907 22.6413 98.1274 22.9879C98.0038 23.2158 97.8958 23.4519 97.804 23.6943C97.7532 23.8158 97.7372 23.949 97.758 24.0791C97.7788 24.2091 97.8354 24.3307 97.9216 24.4302C98.1057 24.6079 98.3519 24.7064 98.6076 24.7049C98.9093 24.7303 99.2105 24.6506 99.4602 24.4792C99.7085 24.3092 99.9469 24.1326 100.176 23.9494C100.701 23.5894 101.204 23.1996 101.685 22.7819L102.577 22.0755C102.851 21.8596 103.148 21.647 103.468 21.4377L103.86 21.2317L104.292 21.0649H104.38H104.429C104.49 21.1483 104.531 21.2452 104.548 21.3475C104.565 21.4498 104.558 21.5547 104.527 21.6536C104.487 21.8673 104.464 22.0838 104.458 22.3011L104.213 23.9102C104.213 24.0966 104.213 24.3026 104.164 24.5479C104.146 24.783 104.146 25.0192 104.164 25.2543C104.181 25.4652 104.245 25.6697 104.35 25.8528C104.464 26.0342 104.643 26.1644 104.85 26.2159C105.044 26.2839 105.255 26.2839 105.448 26.2159C105.645 26.1456 105.83 26.0464 105.997 25.9215C106.174 25.7906 106.341 25.6463 106.497 25.4898L106.908 25.0777C107.274 24.7376 107.624 24.3779 107.957 23.9985L108.182 23.7434C108.072 24.0603 108.003 24.39 107.976 24.7245C107.953 25.0622 108.017 25.4002 108.163 25.7057C108.195 25.8763 108.269 26.0366 108.376 26.1732C108.484 26.3097 108.622 26.4186 108.78 26.4906C109.172 26.5362 109.569 26.4716 109.927 26.3042C110.295 26.1391 110.646 25.9387 110.975 25.7057L111.387 25.4309C111.53 25.3373 111.667 25.2357 111.798 25.1268C111.74 25.4083 111.74 25.6989 111.798 25.9804C111.839 26.1114 111.914 26.229 112.015 26.3206C112.117 26.4122 112.242 26.4744 112.377 26.5004C112.625 26.5879 112.889 26.6181 113.151 26.5887C113.404 26.5402 113.644 26.44 113.856 26.2943C114.134 26.1325 114.402 25.9556 114.66 25.7645C114.921 25.5683 115.179 25.3557 115.434 25.1268C115.983 24.6493 116.522 24.1293 117.051 23.5668C117.277 23.3215 117.463 23.0664 117.669 22.8211L118.012 22.5857L118.56 22.1736C118.972 21.8792 119.384 21.6045 119.795 21.3494C119.939 21.2872 120.077 21.2116 120.207 21.1238C120.363 21.0212 120.535 20.945 120.716 20.8981C120.488 21.3364 120.259 21.7615 120.03 22.1736L119.344 23.4098C119.268 23.5842 119.183 23.7544 119.09 23.92C118.991 24.0965 118.906 24.2801 118.835 24.4694C118.766 24.6441 118.736 24.8315 118.747 25.0189C118.763 25.2092 118.843 25.3887 118.972 25.5291C119.042 25.6152 119.139 25.6755 119.247 25.7003C119.356 25.7252 119.469 25.7133 119.57 25.6664C119.791 25.5858 120.005 25.4839 120.207 25.3623L121.393 24.5872C121.794 24.3226 122.177 24.0309 122.539 23.714C122.97 23.3935 123.389 23.0664 123.794 22.7328C124.199 22.3992 124.604 22.0722 125.009 21.7517C125.264 21.5457 125.567 21.3102 125.94 21.0355C126.261 20.7828 126.637 20.6082 127.037 20.5253C126.969 20.7477 126.851 20.952 126.694 21.1238C126.555 21.281 126.427 21.4483 126.312 21.6242C126.129 21.8727 125.959 22.1245 125.803 22.3796L125.322 23.1351C125.198 23.339 125.09 23.5522 124.999 23.7728C124.899 24.0059 124.814 24.2452 124.744 24.4891C124.677 24.718 124.653 24.9578 124.676 25.1955C124.699 25.4256 124.795 25.6423 124.95 25.8136C125.069 25.9331 125.214 26.0222 125.375 26.0734C125.535 26.1246 125.705 26.1365 125.871 26.1079C126.195 26.0577 126.509 25.9584 126.802 25.8136C127.319 25.5681 127.808 25.2688 128.262 24.9208C128.709 24.5766 129.137 24.2098 129.546 23.8219L129.781 23.5962C129.723 23.714 129.674 23.8023 129.615 23.9298C129.481 24.2222 129.379 24.5281 129.311 24.8423C129.244 25.1347 129.22 25.4357 129.242 25.7351C129.256 25.8756 129.3 26.0114 129.371 26.1333C129.442 26.2552 129.539 26.3603 129.654 26.4415C129.769 26.532 129.902 26.5957 130.045 26.628C130.187 26.6602 130.335 26.6602 130.477 26.6279C130.761 26.5765 131.037 26.4909 131.3 26.3728C131.915 26.0772 132.499 25.7223 133.045 25.3132C133.594 24.9011 134.133 24.476 134.662 24.0377L134.936 23.8317C134.728 24.2566 134.595 24.7149 134.544 25.1857C134.511 25.4147 134.54 25.6483 134.628 25.8622C134.716 26.0762 134.86 26.2627 135.044 26.4023C135.195 26.5416 135.386 26.6298 135.59 26.6545C135.794 26.6791 136.001 26.6389 136.181 26.5396L136.984 26.2649C137.257 26.1684 137.517 26.04 137.759 25.8823C138.903 25.2561 139.952 24.4699 140.875 23.5472C140.77 23.8899 140.694 24.2412 140.65 24.597C140.57 25.105 140.678 25.6246 140.953 26.0589C141.093 26.269 141.29 26.4344 141.522 26.5353C141.753 26.6362 142.008 26.6684 142.257 26.6279C142.945 26.569 143.613 26.365 144.217 26.0294C144.844 25.6951 145.449 25.3215 146.03 24.9109C146.853 24.3485 147.607 23.6898 148.274 22.9487C148.121 23.5176 148.055 24.1064 148.078 24.6951C148.072 25.1282 148.198 25.5528 148.441 25.9117C148.563 26.09 148.723 26.2393 148.909 26.3495C149.096 26.4596 149.303 26.5278 149.519 26.5494C150.164 26.662 150.829 26.5476 151.4 26.2257C151.981 25.9181 152.533 25.5568 153.047 25.1464C153.468 24.7932 153.87 24.4106 154.262 24.0279C154.262 24.0966 154.193 24.1555 154.174 24.2242C154.099 24.4561 154.037 24.6919 153.987 24.9306C153.931 25.1849 153.908 25.4454 153.919 25.7057C153.926 25.946 153.99 26.1812 154.105 26.3925C154.231 26.6082 154.423 26.777 154.654 26.8732C154.899 26.987 155.168 27.0408 155.438 27.0302C155.712 27.0178 155.983 26.9649 156.241 26.8732C156.506 26.7849 156.771 26.677 157.035 26.5691L157.741 26.2551C158.417 25.9201 159.072 25.5433 159.701 25.1268C159.609 25.6493 159.609 26.1839 159.701 26.7064C159.74 26.9575 159.848 27.1929 160.012 27.3868C160.176 27.5806 160.391 27.7254 160.632 27.8053C161.207 28.0566 161.852 28.0982 162.455 27.923C163.047 27.7623 163.611 27.5143 164.13 27.1872C164.707 26.8146 165.226 26.3583 165.669 25.8332C166.118 25.3142 166.438 24.6953 166.6 24.0279C166.673 23.7049 166.673 23.3698 166.6 23.0468C166.587 22.688 166.479 22.3392 166.286 22.0362L166.277 22.0559ZM152.018 18.2491C152.41 17.595 152.821 16.9409 153.252 16.2868C153.71 15.5346 154.2 14.802 154.722 14.0891C155.245 13.3761 155.794 12.6795 156.369 11.9992C156.669 11.6787 156.954 11.3517 157.221 11.0181C157.497 10.6718 157.795 10.344 158.113 10.037C158.292 9.86439 158.482 9.70379 158.682 9.55623C158.9 9.38559 159.15 9.25898 159.417 9.1834C159.477 9.55064 159.393 9.92716 159.181 10.2332L158.603 11.2143C158.401 11.561 158.185 11.8881 157.956 12.1955L157.27 13.1766C156.787 13.8307 156.29 14.4423 155.781 15.0113L154.223 16.7774C153.7 17.3726 153.164 17.9613 152.615 18.5434L150.92 20.2898C151.247 19.5891 151.613 18.9078 152.018 18.2491V18.2491ZM143.962 21.32L144.423 20.8589C144.673 20.6097 144.941 20.3801 145.226 20.1721C145.474 19.9654 145.739 19.7815 146.02 19.6226C146.281 19.4984 146.458 19.5278 146.549 19.7109C146.618 19.7796 146.549 19.8876 146.392 20.0347C146.197 20.2014 145.99 20.3555 145.775 20.4959C145.533 20.6594 145.305 20.8033 145.089 20.9276C144.951 21.014 144.807 21.0894 144.658 21.1532C144.49 21.2602 144.313 21.3522 144.129 21.4279L143.599 21.634L143.962 21.32ZM211.141 43.6113V43.0226C211.147 42.829 211.096 42.6378 210.994 42.4732C210.893 42.3494 210.761 42.2546 210.612 42.1985C210.807 42.1067 210.97 41.9586 211.08 41.7732C211.19 41.5879 211.242 41.3738 211.229 41.1585C211.248 40.9459 211.201 40.7326 211.094 40.5481C210.987 40.3636 210.825 40.2169 210.631 40.1283C210.377 40.0233 210.103 39.9731 209.828 39.9811H207.868V44.3472H208.456V42.4732H209.72C209.897 42.4615 210.074 42.4882 210.239 42.5517C210.339 42.608 210.422 42.6911 210.477 42.7916C210.532 42.8921 210.559 43.0061 210.553 43.1208V43.8468C210.546 43.9611 210.546 44.0758 210.553 44.1902C210.546 44.239 210.546 44.2885 210.553 44.3374H211.278V44.2392C211.229 44.2125 211.186 44.1747 211.154 44.1287C211.122 44.0828 211.1 44.0299 211.092 43.9743C211.097 43.8521 211.113 43.7305 211.141 43.6113ZM210.367 41.8159C210.177 41.9354 209.954 41.9936 209.73 41.9826H208.397V40.4913H209.798C209.96 40.4837 210.121 40.5139 210.269 40.5796C210.381 40.641 210.473 40.7344 210.532 40.8479C210.591 40.9614 210.616 41.09 210.602 41.2174C210.615 41.3288 210.6 41.4415 210.559 41.5459C210.518 41.6502 210.452 41.7429 210.367 41.8159ZM64.3468 26.1177C64.3468 25.207 63.9854 24.3336 63.3422 23.6896C62.6989 23.0456 61.8265 22.6838 60.9168 22.6838H44.4136V9.07547H60.9168C61.8265 9.07547 62.6989 8.71368 63.3422 8.06969C63.9854 7.4257 64.3468 6.55226 64.3468 5.64151C64.3468 4.73077 63.9854 3.85733 63.3422 3.21333C62.6989 2.56934 61.8265 2.20755 60.9168 2.20755H40.9836C40.0739 2.20755 39.2015 2.56934 38.5582 3.21333C37.915 3.85733 37.5536 4.73077 37.5536 5.64151V47.4868C37.5536 48.3975 37.915 49.271 38.5582 49.915C39.2015 50.559 40.0739 50.9208 40.9836 50.9208C41.8933 50.9208 42.7657 50.559 43.409 49.915C44.0522 49.271 44.4136 48.3975 44.4136 47.4868V29.5223H60.9168C61.8265 29.5223 62.6989 29.1605 63.3422 28.5165C63.9854 27.8725 64.3468 26.999 64.3468 26.0883V26.1177Z" fill="#1A171B"/>
</svg>
