<?xml version="1.0" encoding="utf-8"?>
<!-- Generator: Adobe Illustrator 24.0.2, SVG Export Plug-In . SVG Version: 6.00 Build 0)  -->
<svg version="1.1" id="Слой_1" xmlns="http://www.w3.org/2000/svg" xmlns:xlink="http://www.w3.org/1999/xlink" x="0px" y="0px"
	 viewBox="0 0 62.7 49.7" style="enable-background:new 0 0 62.7 49.7;" xml:space="preserve">
<style type="text/css">
	.st0{fill:#1A171B;}
</style>
<title>Монтажная область 1</title>
<path class="st0" d="M3.5,7h20.4c1.9,0,3.5-1.6,3.5-3.5S25.8,0,23.9,0H3.5C1.6,0,0,1.6,0,3.5S1.6,7,3.5,7z M3.5,27.5h20.4
	c1.9,0,3.5-1.6,3.5-3.5s-1.6-3.5-3.5-3.5H3.5C1.6,20.5,0,22.1,0,24S1.6,27.5,3.5,27.5z M3.5,49.6h20.4c1.9,0,3.5-1.6,3.5-3.5
	s-1.6-3.5-3.5-3.5H3.5c-1.9,0-3.5,1.6-3.5,3.5S1.6,49.6,3.5,49.6z M62.7,24.4c0-1.9-1.6-3.5-3.5-3.5H42.3V7h16.8
	c1.9,0,3.5-1.6,3.5-3.5S61.1,0,59.2,0H38.8c-1.9,0-3.5,1.6-3.5,3.5v42.7c0,1.9,1.6,3.5,3.5,3.5s3.5-1.6,3.5-3.5l0,0V27.8h16.8
	C61.1,27.8,62.7,26.3,62.7,24.4C62.7,24.3,62.7,24.3,62.7,24.4L62.7,24.4z"/>
</svg>
