<svg xmlns="http://www.w3.org/2000/svg" width="256" height="256" viewBox="0 0 100 100"><rect width="100" height="100" rx="20" fill="#1c2b4a"></rect><path fill="#fff" d="M20.60 62.57L20.60 62.57Q24.03 62.57 25.43 61.45Q26.83 60.33 26.83 58.93L26.83 58.93Q26.83 57.53 25.71 56.72Q24.59 55.92 22.56 55.22L22.56 55.22L19.62 54.23Q16.54 53.19 14.02 52.10Q11.50 51.02 9.68 49.48Q7.86 47.94 6.84 45.80Q5.83 43.67 5.83 40.59L5.83 40.59Q5.83 34.63 10.41 31.06Q15.00 27.49 23.26 27.49L23.26 27.49Q26.27 27.49 28.86 27.91Q31.45 28.34 33.30 29.21Q35.16 30.09 36.21 31.45Q37.26 32.81 37.26 34.63L37.26 34.63Q37.26 36.45 36.42 37.75Q35.58 39.05 34.39 39.95L34.39 39.95Q32.85 38.98 30.26 38.24Q27.67 37.51 24.59 37.51L24.59 37.51Q21.44 37.51 19.97 38.38Q18.50 39.26 18.50 40.59L18.50 40.59Q18.50 41.64 19.41 42.30Q20.32 42.97 22.14 43.53L22.14 43.53L25.85 44.72Q32.43 46.81 35.96 50.14Q39.50 53.47 39.50 59.07L39.50 59.07Q39.50 62.01 38.31 64.49Q37.12 66.98 34.77 68.76Q32.43 70.55 28.96 71.53Q25.50 72.51 21.02 72.51L21.02 72.51Q17.80 72.51 15.03 71.98Q12.27 71.45 10.20 70.44Q8.14 69.43 6.98 67.92Q5.83 66.42 5.83 64.45L5.83 64.45Q5.83 62.43 7.02 60.99Q8.21 59.56 9.61 58.79L9.61 58.79Q11.57 60.33 14.40 61.45Q17.24 62.57 20.60 62.57ZM75.48 60.82L75.48 60.82Q74.57 61.59 73.13 62.04Q71.70 62.50 69.81 62.50L69.81 62.50Q67.29 62.50 65.64 61.87Q64 61.23 63.51 59.70L63.51 59.70Q61.55 53.54 60.29 49.72Q59.03 45.91 58.33 43.03L58.33 43.03L57.98 43.03Q57.77 47.17 57.66 50.56Q57.56 53.95 57.52 57.18Q57.49 60.40 57.38 63.69Q57.28 66.98 57.07 70.97L57.07 70.97Q56.16 71.31 54.69 71.56Q53.22 71.81 51.75 71.81L51.75 71.81Q48.67 71.81 46.95 70.83Q45.24 69.84 45.24 67.26L45.24 67.26Q45.24 65.09 45.45 60.92Q45.66 56.76 45.97 51.72Q46.29 46.67 46.64 41.36Q46.99 36.04 47.27 31.55L47.27 31.55Q47.83 30.65 49.72 29.59Q51.61 28.55 55.04 28.55L55.04 28.55Q58.75 28.55 60.85 29.70Q62.95 30.86 63.93 33.45L63.93 33.45Q64.56 35.13 65.30 37.30Q66.03 39.47 66.77 41.78Q67.50 44.09 68.20 46.36Q68.90 48.64 69.46 50.45L69.46 50.45L69.81 50.45Q71.49 44.58 73.17 39.08Q74.85 33.59 76.25 29.88L76.25 29.88Q77.30 29.31 78.94 28.93Q80.59 28.55 82.62 28.55L82.62 28.55Q86.05 28.55 88.22 29.56Q90.39 30.58 90.74 32.47L90.74 32.47Q91.02 33.87 91.34 36.77Q91.65 39.67 92 43.31Q92.35 46.95 92.70 51.02Q93.05 55.08 93.37 58.82Q93.68 62.57 93.89 65.68Q94.10 68.80 94.17 70.48L94.17 70.48Q92.98 71.18 91.69 71.49Q90.39 71.81 88.36 71.81L88.36 71.81Q85.70 71.81 83.88 70.90Q82.06 69.98 81.92 67.33L81.92 67.33Q81.50 59.70 81.39 53.61Q81.29 47.52 81.08 43.39L81.08 43.39L80.73 43.39Q80.03 46.12 78.70 50.25Q77.37 54.38 75.48 60.82Z"></path></svg>